<?xml version="1.0" encoding="UTF-8" standalone="no"?>
<!-- Created with Inkscape (http://www.inkscape.org/) -->

<svg
   xmlns:dc="http://purl.org/dc/elements/1.1/"
   xmlns:cc="http://creativecommons.org/ns#"
   xmlns:rdf="http://www.w3.org/1999/02/22-rdf-syntax-ns#"
   xmlns:svg="http://www.w3.org/2000/svg"
   xmlns="http://www.w3.org/2000/svg"
   xmlns:sodipodi="http://sodipodi.sourceforge.net/DTD/sodipodi-0.dtd"
   xmlns:inkscape="http://www.inkscape.org/namespaces/inkscape"
   width="150"
   height="150"
   viewBox="0 0 150 150"
   id="svg5277"
   version="1.1"
   inkscape:version="0.91 r13725"
   sodipodi:docname="tiles.svg"
   inkscape:export-filename="tiles-256.png"
   inkscape:export-xdpi="180"
   inkscape:export-ydpi="180">

    <defs
     id="defs5279" />
    <sodipodi:namedview
        id="base"
        pagecolor="#ffffff"
        bordercolor="#666666"
        borderopacity="1.0"
        inkscape:pageopacity="0.0"
        inkscape:pageshadow="2"
        inkscape:zoom="0.3535534"
        inkscape:cx="474.80883"
        inkscape:cy="1958.3659"
        inkscape:document-units="px"
        inkscape:current-layer="layer1"
        showgrid="true"
        units="px"
        borderlayer="true"
        inkscape:showpageshadow="false"
        inkscape:window-width="1920"
        inkscape:window-height="1080"
        inkscape:window-x="0"
        inkscape:window-y="0"
        inkscape:window-maximized="0"
        inkscape:snap-global="true"
        showguides="true"
        showborder="true"
        inkscape:guide-bbox="true"
        inkscape:snap-bbox="true"
        inkscape:bbox-nodes="true">
        <inkscape:grid
        type="xygrid"
        id="grid5844"
        empspacing="128"
        dotted="false"
        spacingx="1"
        color="#26c345"
        opacity="0.15686275"
        empcolor="#3f3f6f"
        empopacity="0.38039216" />
        <inkscape:grid
        type="xygrid"
        id="grid12226"
        empspacing="16" />
        <sodipodi:guide
        position="1128.5424,896.61138"
        orientation="0,1"
        id="guide5911" />
        <sodipodi:guide
        position="1050.7607,1791.8085"
        orientation="0,1"
        id="guide25379" />
    </sodipodi:namedview>
    <metadata
        id="metadata5282">
        <rdf:RDF>
        <cc:Work
            rdf:about="">
            <dc:format>image/svg+xml</dc:format>
            <dc:type
            rdf:resource="http://purl.org/dc/dcmitype/StillImage" />
            <dc:title />
        </cc:Work>
        </rdf:RDF>
    </metadata>

    <g
     inkscape:label="Layer 1"
     inkscape:groupmode="layer"
     id="layer1"
     transform="translate(0,2019.6379)">
    <ellipse
       ry="7.5519481"
       rx="47.50835"
       cy="-1900.272"
       cx="55"
       id="ellipse8693"
       style="opacity:1;fill:#000000;fill-opacity:0.25098039;stroke:none;stroke-width:1;stroke-linecap:round;stroke-linejoin:round;stroke-miterlimit:4;stroke-dasharray:none;stroke-dashoffset:0;stroke-opacity:1" />
    <!-- player 1 -->
    <g
       id="g5407"
       transform="matrix(0.40185782,0,0,0.40185782,2074.1142,-2993.0797)"
       inkscape:export-xdpi="35.84"
       inkscape:export-ydpi="35.84">
      <path
         style="fill:#87808a;fill-opacity:1;fill-rule:evenodd;stroke:#000000;stroke-width:1px;stroke-linecap:butt;stroke-linejoin:miter;stroke-opacity:1"
         d="m -5091.1022,2576.0568 -1.0101,-19.1929 8.0812,0 5.0507,-28.2843 8.0813,-19.1929 28.2842,-16.1624 31.3148,-8.0812 22.2233,8.0812 25.2538,19.1929 9.0914,29.2944 1.0102,17.1726 9.0913,0 1.0102,18.1828 -17.1726,-1.0102 -74.7513,-2.0203 z"
         id="path5193"
         inkscape:connector-curvature="0" />
      <path
         style="fill:#897c35;fill-opacity:1;fill-rule:evenodd;stroke:#000000;stroke-width:1px;stroke-linecap:butt;stroke-linejoin:miter;stroke-opacity:1"
         d="m -5094.1327,2640.7066 -2.0203,31.3147 21.2132,13.132 49.4975,8.0812 52.528,-1.0101 17.1725,-10.1016 2.0204,-18.1827 -21.2133,-1.0102 -17.1725,5.0508 -22.2234,3.0305 -10.1015,-6.061 -8.0812,7.0711 -13.132,-7.0711 -5.0508,8.0813 z"
         id="path5195"
         inkscape:connector-curvature="0" />
      <path
         style="fill:#f1d0a9;fill-opacity:1;fill-rule:evenodd;stroke:#000000;stroke-width:1px;stroke-linecap:butt;stroke-linejoin:miter;stroke-opacity:1"
         d="m -5058.7773,2577.067 -10.1015,37.3756 18.1827,11.1117 57.5787,1.0101 36.3655,-8.0812 -7.0711,-46.467 z"
         id="path5197"
         inkscape:connector-curvature="0" />
      <path
         style="fill:#eda14f;fill-opacity:1;fill-rule:evenodd;stroke:#000000;stroke-width:1px;stroke-linecap:butt;stroke-linejoin:miter;stroke-opacity:1"
         d="m -5085.0413,2576.0568 -4.0406,12.1218 -15.1523,14.1422 12.1219,35.3553 11.1116,13.132 21.2132,13.132 13.132,6.0609 20.2031,-3.0305 19.1929,2.0203 43.4365,-7.071 14.1422,-9.0914 16.1624,-12.1218 -11.1117,-43.4366 -15.1523,-12.1218 3.0305,33.335 -29.2944,8.0812 -55.5584,-3.0304 -23.2335,-6.0609 -4.0406,-8.0813 10.1015,-32.3248 z"
         id="path5199"
         inkscape:connector-curvature="0" />
      <path
         inkscape:connector-curvature="0"
         id="path5389"
         d="m -5108.1035,2490.2638 c -2.2385,4.2138 1.0691,9.5671 1.7265,14.0625 3.0751,8.097 8.9062,15.2334 15.4395,20.7891 4.3349,2.0991 11.4443,0.2589 11.332,-5.4434 -3.5657,-4.2303 -9.842,-5.8471 -13.375,-10.4707 -5.939,-5.3079 -8.01,-13.777 -13.4883,-19.1953 l -0.9877,0.1558 -0.647,0.102 z"
         style="opacity:1;fill:#f5f2e3;fill-opacity:1;stroke:none;stroke-width:10;stroke-linecap:round;stroke-linejoin:round;stroke-miterlimit:4;stroke-dasharray:none;stroke-dashoffset:0;stroke-opacity:1" />
      <path
         inkscape:connector-curvature="0"
         id="path5201"
         d="m -5091.1022,2576.0568 -1.0101,-19.1929 8.0812,0 c 101.0625,-39.4633 113.913,18.3642 120.0138,-40.8666 l 10.2959,42.8869 9.0913,0 1.0102,18.1828 -17.1726,-1.0102 -74.7513,-2.0203 z"
         style="fill:#646266;fill-opacity:1;fill-rule:evenodd;stroke:none;stroke-width:1px;stroke-linecap:butt;stroke-linejoin:miter;stroke-opacity:1"
         sodipodi:nodetypes="cccccccccc" />
      <path
         inkscape:connector-curvature="0"
         id="path5203"
         d="m -5096.153,2672.0213 21.2132,13.132 49.4975,8.0812 52.528,-1.0101 17.1725,-10.1016 -4.4082,-28.897 c 8.6659,58.6595 -135.3296,9.6884 -136.003,18.7955 z"
         style="fill:#434252;fill-opacity:1;fill-rule:evenodd;stroke:none;stroke-width:1px;stroke-linecap:butt;stroke-linejoin:miter;stroke-opacity:1"
         sodipodi:nodetypes="ccccccc" />
      <path
         inkscape:connector-curvature="0"
         id="path5391"
         d="m -4920.8223,2508.5509 c -10.5868,5.8872 -22.6762,8.5825 -33.4257,13.918 -1.9134,3.3293 0.2517,7.9933 2.0234,10.9531 4.7283,1.1889 9.3512,-3.116 13.6862,-4.8146 7.4965,-4.7389 16.4346,-9.4147 20.2611,-17.7987 0.2007,-1.3659 -1.2966,-2.4855 -2.545,-2.2578 z"
         style="opacity:1;fill:#f5f2e3;fill-opacity:1;stroke:none;stroke-width:10;stroke-linecap:round;stroke-linejoin:round;stroke-miterlimit:4;stroke-dasharray:none;stroke-dashoffset:0;stroke-opacity:1" />
      <path
         sodipodi:nodetypes="ccccccccccc"
         inkscape:connector-curvature="0"
         id="path5397"
         d="m -5092.1123,2637.6761 11.1116,13.132 21.2132,13.132 13.132,6.0609 20.2031,-3.0305 19.1929,2.0203 43.4365,-7.071 14.1422,-9.0914 16.1624,-12.1218 -11.1117,-43.4366 c 8.6672,59.7695 -63.9684,74.7725 -147.4822,40.4061 z"
         style="fill:#ba7848;fill-opacity:1;fill-rule:evenodd;stroke:none;stroke-width:1px;stroke-linecap:butt;stroke-linejoin:miter;stroke-opacity:1" />
      <path
         style="fill:#202024;fill-opacity:1"
         d="m -4975.2967,2724.2964 c -2.3755,-1.3836 -1.8759,-5.4876 1.0776,-8.8515 1.4225,-1.6201 2.5864,-3.3923 2.5864,-3.9381 0,-0.5459 -0.953,-2.8731 -2.1177,-5.1715 -1.4374,-2.8367 -2.8144,-4.3539 -4.2867,-4.7235 -1.193,-0.2994 -2.8593,-1.2852 -3.7029,-2.1907 -1.4311,-1.5362 -3.3225,-1.6702 -28.2581,-2.0024 -24.1545,-0.3219 -27.429,-0.5404 -34.0523,-2.2727 -4.0304,-1.0541 -11.5269,-2.8298 -16.6589,-3.946 -8.3201,-1.8096 -9.2639,-1.8742 -8.7131,-0.5967 3.3101,7.6779 3.3269,8.3216 0.4541,17.3837 -3.2294,10.1873 -5.577,13.4691 -9.0173,12.6057 -3.6823,-0.9242 -4.5676,-3.971 -2.4544,-8.447 0.9683,-2.0512 2.4415,-5.9464 3.2738,-8.6561 l 1.5131,-4.9266 -2.8796,-4.5566 c -1.5839,-2.5062 -3.6609,-5.9466 -4.6158,-7.6454 -1.0838,-1.9283 -4.1382,-4.6607 -8.1296,-7.2726 -3.5165,-2.3011 -7.027,-5.1505 -7.8011,-6.3319 -0.774,-1.1814 -1.8087,-5.2747 -2.2991,-9.0962 l -0.8918,-6.9482 -5.0128,6.2043 c -3.8322,4.743 -4.8782,6.6285 -4.4412,8.0054 0.3475,1.0949 0,2.6684 -0.8778,4.0132 -1.2353,1.8854 -1.8962,2.1397 -4.4738,1.7214 -3.5814,-0.5812 -5.3622,-2.6171 -5.3999,-6.1735 -0.032,-3.0362 8.6067,-15.1314 16.4712,-23.0613 2.704,-2.7264 4.5669,-4.9572 4.1397,-4.9572 -1.6956,0 -1.697,-4.2255 0,-8.6829 0.9783,-2.5739 1.7789,-4.7768 1.7791,-4.8954 3e-4,-0.1185 -1.1033,-0.2155 -2.4523,-0.2155 -5.0406,0 -6.8669,-5.6199 -3.5788,-11.0128 0.9465,-1.5525 1.721,-3.124 1.721,-3.4922 0,-0.3682 -1.736,-1.5129 -3.8577,-2.5437 -4.1896,-2.0355 -5.5923,-4.7931 -3.9752,-7.8148 0.5142,-0.9608 3.2365,-3.5551 6.0495,-5.7651 4.7396,-3.7236 14.7151,-14.623 14.7151,-16.0778 0,-0.3501 -1.3578,-1.7199 -3.0174,-3.044 -3.3351,-2.6612 -3.8997,-5.506 -1.7123,-8.6289 1.2234,-1.7466 1.1565,-1.9345 -1.0671,-3.0002 -3.968,-1.9019 -3.7553,-6.1346 0.5438,-10.8227 1.6143,-1.7603 3.3887,-2.8019 4.7733,-2.8019 1.2122,0 2.2059,-0.2909 2.2084,-0.6466 0,-0.3556 0.9368,-5.0391 2.0764,-10.4078 l 2.072,-9.7613 -3.3051,0.5584 c -3.7828,0.6391 -6.4232,-0.472 -9.0215,-3.7964 -0.9573,-1.2249 -4.0262,-4.9458 -6.8196,-8.2687 -6.4841,-7.7131 -8.6355,-12.6224 -11.3012,-25.7877 -3.3766,-16.6767 -2.7554,-21.2045 2.9091,-21.2045 5.2795,0 10.5625,5.8047 19.1291,21.0184 4.3319,7.6931 10.5274,13.8133 15.4878,15.2995 l 3.3081,0.9911 8.7076,-8.0936 c 17.6546,-16.4098 34.4216,-23.2082 54.7118,-22.1836 5.7646,0.2911 7.3491,0.8359 18.6985,6.4288 16.254,8.0098 27.2924,16.265 32.8287,24.5512 l 2.0686,3.0962 14.3479,-5.2515 c 10.4551,-3.8266 16.1856,-6.4794 21.1212,-9.7775 6.7251,-4.4939 10.1384,-5.4769 12.1238,-3.4916 1.4882,1.4882 1.2782,10.8748 -0.3501,15.6538 -2.8185,8.2718 -15.8287,19.1368 -31.2213,26.0733 -6.2068,2.7971 -7.1088,3.4737 -6.6932,5.0214 0.2642,0.9837 0.4857,3.8254 0.4921,6.3147 0.011,4.0187 0.2147,4.5261 1.8213,4.5261 2.8415,0 7.5556,2.5802 8.153,4.4625 0.2985,0.9404 0.091,4.2976 -0.462,7.4604 -0.5526,3.1628 -1.3649,7.8542 -1.8051,10.4254 -0.9458,5.5239 -2.7415,7.8258 -6.1048,7.8258 -1.349,0 -2.4527,0.2064 -2.4527,0.4587 0,1.9001 3.1791,7.0159 7.7512,12.473 7.3416,8.7628 8.1642,10.1503 8.4113,14.1869 0.4393,7.1758 1.3193,12.1028 2.4772,13.87 0.6569,1.0026 1.1662,3.7318 1.1318,6.065 -0.034,2.3333 0.1987,5.886 0.5179,7.895 0.546,3.4368 0.4225,3.7426 -2.0901,5.1727 -2.2133,1.2598 -2.6713,2.0552 -2.6758,4.6473 -0.01,4.3296 -1.7592,5.4938 -8.2656,5.4938 -4.2066,0 -5.9456,0.412 -7.8405,1.8574 -2.1668,1.653 -2.2925,2.0011 -1.1417,3.1621 0.7113,0.7176 4.4776,2.5224 8.3696,4.0107 5.7728,2.2074 7.7863,3.4955 10.93,6.992 6.4352,7.1575 8.1098,14.7594 3.8442,17.4502 -2.2729,1.4336 -5.8162,-0.042 -6.3995,-2.6649 -1.0576,-4.7556 -1.4271,-5.5439 -3.9406,-8.4066 -2.3151,-2.6367 -11.5378,-7.1429 -12.5492,-6.1315 -0.2095,0.2095 -0.9607,3.2298 -1.6693,6.7118 -1.5599,7.665 -3.9307,10.9274 -11.0923,15.2641 l -5.1792,3.1363 2.3699,4.3106 c 5.2418,9.534 5.0228,14.5288 -0.9189,20.9649 -3.354,3.633 -5.3465,4.2893 -8.1194,2.6742 z m 4.5261,-37.3676 c 7.0764,-3.6634 8.3407,-5.1948 9.4551,-11.4527 0.5736,-3.2203 1.2279,-6.5317 1.4541,-7.3587 0.3116,-1.1392 -0.073,-1.4702 -1.585,-1.3652 -1.0979,0.076 -3.1601,-0.1268 -4.5826,-0.4512 -2.1671,-0.4941 -2.9824,-0.1681 -5.0302,2.0118 -2.128,2.2652 -3.0401,2.6015 -7.0564,2.6015 -2.5368,0 -5.6326,-0.3879 -6.8796,-0.862 -1.9844,-0.7545 -2.5385,-0.5395 -4.4433,1.7242 -1.7233,2.048 -2.8661,2.5862 -5.4919,2.5862 -1.8236,0 -4.3997,-0.4121 -5.7247,-0.9159 -1.742,-0.6623 -2.498,-0.6489 -2.7304,0.048 -0.6085,1.8255 -3.9224,4.316 -5.743,4.316 -2.0889,0 -8.6969,-4.0166 -11.1319,-6.7664 -2.0844,-2.354 -2.8371,-2.3361 -3.5713,0.085 -0.9312,3.0705 -3.9404,5.82 -6.3596,5.8108 -2.4861,-0.01 -10.7409,-3.6061 -11.6491,-5.0756 -0.9135,-1.4781 -1.8194,-1.1363 -3.0417,1.1477 -1.3771,2.573 -5.2748,4.3034 -7.8515,3.4856 -2.4524,-0.7784 -8.9713,-6.7489 -12.1875,-11.1624 -2.1208,-2.9103 -2.9079,-3.3874 -5.2542,-3.1853 -3.2267,0.278 -6.328,-2.1665 -7.6842,-6.0568 -0.5918,-1.6976 -1.2982,-2.3674 -2.1516,-2.04 -5.3134,2.039 -9.1177,1.0099 -10.9054,-2.9499 -0.8374,-1.8547 -1.0186,-1.035 -1.2349,5.5854 -0.1394,4.2675 -0.049,8.535 0.2012,9.4833 0.4536,1.7199 13.4812,10.7613 17.8787,12.4081 1.2696,0.4755 7.0889,1.8707 12.9318,3.1005 5.8428,1.2298 13.921,3.0402 17.9514,4.0232 10.8461,2.6454 17.7131,3.0946 44.83,2.9329 21.8556,-0.1303 24.9037,-0.3191 27.5877,-1.7086 z m -59.9246,-22.8969 c 1.7469,-3.378 5.8761,-5.4912 9.4281,-4.8249 1.6027,0.3007 4.1433,1.9469 6.105,3.9559 3.6663,3.7546 4.7342,4.2057 4.7342,2 0,-2.2053 2.6047,-4.594 5.0094,-4.594 1.1857,0 3.4274,0.9699 4.9815,2.1553 1.5542,1.1854 3.0345,2.1553 3.2897,2.1553 0.2552,0 0.7903,-1.2597 1.1893,-2.7992 0.4154,-1.6033 1.664,-3.3261 2.9224,-4.0324 1.9991,-1.1221 2.577,-1.0368 6.4118,0.947 6.8531,3.5451 8.2489,3.604 10.2746,0.433 1.5982,-2.5017 2.1201,-2.7309 6.0349,-2.6502 2.3569,0.049 5.4492,0.2425 6.8717,0.431 2.2859,0.303 2.5539,0.1112 2.3074,-1.6515 -0.3439,-2.458 1.7912,-5.8756 4.1355,-6.6196 0.9609,-0.305 1.7472,-1.2954 1.7472,-2.2008 0,-0.9054 0.9558,-2.2725 2.1241,-3.038 1.9458,-1.275 2.3548,-1.2767 4.8741,-0.02 3.5005,1.7463 3.3472,1.7943 3.3472,-1.0497 0,-2.6357 1.2684,-4.6585 3.7298,-5.948 1.4781,-0.7744 1.4386,-0.9865 -0.6466,-3.4646 -1.2216,-1.4518 -2.2211,-3.5909 -2.2211,-4.7535 0,-1.1627 -0.6074,-3.3314 -1.3497,-4.8195 -1.242,-2.4895 -1.2288,-2.9104 0.1652,-5.2702 1.4494,-2.4537 1.4474,-2.6393 -0.046,-4.2898 -1.0921,-1.2067 -1.4329,-2.5774 -1.1343,-4.5611 0.3658,-2.4289 -0.1973,-3.6085 -3.9241,-8.2203 -2.3931,-2.9614 -4.5181,-5.2175 -4.7221,-5.0135 -0.2041,0.2041 0.098,3.1521 0.6714,6.5513 1.2109,7.1791 0.4796,18.3799 -1.3909,21.3045 -1.2792,1.9999 -4.138,2.5097 -6.3227,1.1274 -0.7942,-0.5025 -2.0379,-0.3757 -3.4484,0.3514 -1.2135,0.6256 -7.4437,2.1972 -13.8449,3.4924 -10.1721,2.0583 -12.7791,2.2816 -20.6908,1.7718 -4.9787,-0.3208 -17.3931,-0.9285 -27.5877,-1.3505 -10.3697,-0.4291 -21.1052,-1.3401 -24.3686,-2.0678 -12.292,-2.7409 -21.3235,-8.7285 -21.3235,-14.1368 0,-1.2906 0.4051,-3.7018 0.9002,-5.3583 0.4951,-1.6564 2.2116,-7.8611 3.8143,-13.7881 1.6028,-5.9271 3.1789,-11.4554 3.5026,-12.2852 0.5204,-1.334 -0.01,-1.5087 -4.5561,-1.5087 -2.8295,0 -6.9388,0.246 -9.1318,0.5465 -3.5683,0.4891 -3.9375,0.7453 -3.5126,2.4379 0.5482,2.1844 -3.4894,7.689 -12.0263,16.3956 l -5.3446,5.4509 2.8318,3.09 c 2.8454,3.1049 3.5107,5.8865 1.9823,8.288 -0.6224,0.9778 -0.3753,1.4033 1.0131,1.7447 1.0099,0.2484 2.5924,1.4645 3.5166,2.7024 1.5842,2.1218 1.6058,2.5057 0.3765,6.6991 l -1.304,4.4483 2.52,0.504 c 3.6487,0.7297 6.7969,4.8466 6.7969,8.8883 l 0,3.3016 2.9701,-0.9115 c 3.4658,-1.0637 6.7874,0.5638 8.4075,4.1195 0.7479,1.6415 1.3982,1.9817 3.0129,1.5764 2.4616,-0.6178 4.9168,1.3392 7.1788,5.7224 1.7732,3.4357 7.5144,10.3454 8.5961,10.3454 0.3955,0 0.9827,-1.5595 1.3047,-3.4656 1.2879,-7.6233 4.9664,-7.892 11.5689,-0.845 2.6655,2.845 5.3128,5.1727 5.8829,5.1727 0.5701,0 1.635,-1.1573 2.3664,-2.5718 z m 49.8748,-44.0083 c 4.8162,-0.9625 10.7934,-2.5594 13.2827,-3.5486 4.4942,-1.7858 4.5261,-1.825 4.5261,-5.5621 0,-2.07 -0.9699,-9.6736 -2.1553,-16.8968 -1.1854,-7.2233 -2.1552,-13.393 -2.1552,-13.7105 0,-0.3175 -7.8561,-0.8133 -17.4579,-1.1017 -9.6018,-0.2884 -24.0961,-0.7645 -32.2095,-1.058 -11.4606,-0.4146 -16.7095,-0.2235 -23.5272,0.8563 -4.8265,0.7645 -10.0996,1.3899 -11.7179,1.3899 -2.6591,0 -3.0323,0.3112 -3.8771,3.233 -1.8034,6.2366 -7.113,25.6677 -7.5388,27.5892 -0.3683,1.6621 0.2546,2.2548 4.3309,4.121 7.3974,3.3867 16.7381,4.8194 35.9599,5.5157 30.2494,1.0958 33.2039,1.0383 42.5393,-0.8274 z m -11.3113,-5.6268 c -1.7158,-1.2018 -1.916,-2.0828 -1.916,-8.4293 0,-8.2922 1.249,-10.9194 5.1912,-10.9194 3.7477,0 4.5453,2.2662 3.8281,10.8765 -0.5005,6.0084 -0.9218,7.4969 -2.4182,8.545 -2.246,1.5732 -2.3371,1.5718 -4.6851,-0.073 z m -45.8839,-8.1412 c -1.2941,-1.2941 -1.7243,-2.8737 -1.7243,-6.3323 0,-4.9856 1.6231,-7.4616 4.8915,-7.4616 2.0028,0 4.5918,2.5307 4.5918,4.4885 0,0.7344 0.5819,1.8182 1.2932,2.4085 0.7112,0.5902 1.2932,2.1675 1.2932,3.5051 0,4.6321 -6.857,6.8802 -10.3454,3.3918 z m 83.1383,-23.3675 c -0.7982,-1.2914 -2.9485,-0.8786 -2.4321,0.467 0.2614,0.6813 1.0229,1.0286 1.6922,0.7718 0.6693,-0.2569 1.0022,-0.8143 0.7399,-1.2388 z m 6.1261,-19.5592 c -0.3338,-0.3337 -13.341,-0.7467 -28.9049,-0.9176 -25.9687,-0.2853 -30.2728,-0.1139 -52.2856,2.0821 -21.0552,2.1006 -24.8383,2.2701 -30.947,1.3869 -7.585,-1.0967 -18.4472,-1.3203 -22.7113,-0.4674 -2.4774,0.4954 -2.6941,0.8155 -2.6941,3.98 0,3.3209 0.083,3.4208 2.3708,2.8569 1.304,-0.3213 9.7419,-0.7497 18.751,-0.952 9.0091,-0.2022 20.6042,-1.0088 25.7668,-1.7925 7.3457,-1.1151 12.2192,-1.2932 22.415,-0.8194 7.1656,0.333 22.3393,0.9177 33.7192,1.2995 19.8843,0.6669 27.5607,1.7002 32.2204,4.3368 1.2054,0.682 1.5077,0.01 2.1543,-4.7966 0.4137,-3.0744 0.4791,-5.863 0.1454,-6.1967 z m -82.7986,-8.0397 c 11.472,-1.3269 23.1047,-1.9107 44.6145,-2.2392 l 29.0964,-0.4443 0,-3.9345 c 0,-2.1639 -0.3653,-5.1259 -0.8118,-6.582 -0.4465,-1.4562 -1.2479,-4.8679 -1.7809,-7.5815 -0.9923,-5.0525 -5.4092,-14.3576 -9.2581,-19.504 -3.4839,-4.6584 -15.3207,-12.8432 -27.1367,-18.7642 l -10.9906,-5.5074 -7.5558,0.015 c -16.9824,0.034 -28.4898,4.8833 -43.3769,18.2808 -10.3158,9.2836 -12.8989,12.3008 -15.3761,17.9605 -1.3267,3.0313 -5.6211,21.4267 -6.4077,27.4478 -0.1228,0.9399 1.2481,1.1824 6.309,1.1164 3.5562,-0.046 8.2117,0.2376 10.3454,0.6311 6.6694,1.23 16.2537,0.9648 32.3293,-0.8945 z m 86.9186,-25.6289 c 7.593,-3.4428 16.9993,-9.8171 21.1802,-14.3528 4.1709,-4.5249 4.6445,-6.509 0.9208,-3.8575 -1.4434,1.0278 -7.9416,3.798 -14.4404,6.1561 -6.4989,2.3581 -12.9153,4.6964 -14.2588,5.1963 -1.9351,0.72 -2.3339,1.2893 -1.919,2.7393 0.288,1.0066 0.7569,2.8972 1.0418,4.2011 0.2849,1.304 0.866,2.3708 1.2913,2.3708 0.4253,0 3.2082,-1.104 6.1841,-2.4533 z m -137.5004,-7.7527 c 0.6298,-1.1088 1.0178,-2.0787 0.8621,-2.1553 -10.1731,-5.0079 -15.8209,-10.6124 -21.861,-21.6931 -2.1967,-4.0299 -4.1182,-7.3271 -4.27,-7.3271 -0.1517,0 0.4573,3.3552 1.3535,7.4561 1.8802,8.6039 3.0851,10.8883 10.3092,19.5449 5.0519,6.0536 5.4369,6.3253 8.8711,6.2594 2.8209,-0.054 3.8353,-0.5009 4.7351,-2.0849 z"
         id="path5205"
         inkscape:connector-curvature="0" />
      <ellipse
         style="opacity:1;fill:#b8b4ba;fill-opacity:1;stroke:none;stroke-width:5.85699987;stroke-linecap:round;stroke-linejoin:round;stroke-miterlimit:4;stroke-dasharray:none;stroke-dashoffset:0;stroke-opacity:1"
         id="ellipse5207"
         cx="-5615.5547"
         cy="-430.68826"
         rx="13.637059"
         ry="9.0913725"
         transform="matrix(0.85876636,-0.51236739,0.51236739,0.85876636,0,0)" />
    </g>
    <!-- end player 1 -->
    
  </g>


</svg>